<svg xmlns="http://www.w3.org/2000/svg" xmlns:xlink="http://www.w3.org/1999/xlink"><symbol id="icon-genre" viewBox="0 0 512 512"><path d="M66.193 66.193C23.508 108.88 0 165.633 0 226s23.508 117.12 66.193 159.807C108.88 428.492 165.633 452 226 452h15V0h-15C165.633 0 108.88 23.508 66.193 66.193zM30 226c0-103.028 79.906-187.745 181-195.432V211H60v15c0 86.477 66.47 157.707 151 165.315v30.117C109.906 413.745 30 329.028 30 226zm89.104 83.981C103.801 290.545 93.67 266.855 90.821 241H211v30.674c-34.025 3.017-65.827 16.274-91.896 38.307zM211 301.819v59.35c-26.657-2.938-51.018-13.608-70.783-29.716 20.314-16.587 44.701-26.799 70.783-29.634z"/><path d="M91 151h90v30H91zm285 9c-24.813 0-45 20.187-45 45v45c0 24.813 20.187 45 45 45s45-20.187 45-45v-45c0-24.813-20.187-45-45-45zm15 90c0 8.271-6.729 15-15 15s-15-6.729-15-15v-45c0-8.271 6.729-15 15-15s15 6.729 15 15z"/><path d="M445.807 126.193C403.12 83.508 346.367 60 286 60h-15v452h15c60.367 0 117.12-23.508 159.807-66.193C488.492 403.12 512 346.367 512 286s-23.508-117.12-66.193-159.807zM301 481.432V355h75v-30h-75V90.568C402.094 98.255 482 182.972 482 286s-79.906 187.745-181 195.432z"/></symbol><symbol id="icon-github" viewBox="0 0 512 512"><path d="M256 0C115.3 0 0 116.3 0 257c0 139.883 114.25 255 256 255 141.574 0 256-114.945 256-255C512 116.3 396.7 0 256 0zm45 477.5c-14.398 3-29.7 4.5-45 4.5s-30.602-1.5-45-4.5v-70.2c0-16.8 4.5-22.8 10.5-30.902 3.055-3.492 4.898-6.625 18.598-27.296L217 345.5c-59.402-8.7-82.8-39.602-92.102-63.602-12-32.097-5.699-72.3 15.903-97.796 3.3-3.903 6-10.504 3.601-17.403-4.504-13.8-3.902-35.699-.902-44.101 15.906 2.273 32.262 13.668 45.902 21.902 6.286 3.668 9.582 2.7 12.598 3 10.96-2.281 28.059-7.8 54.3-7.8 16.2 0 33.302 2.398 50.102 7.198 3.004-.07 7.832 2.485 16.2-2.398 14.257-8.687 30.058-19.691 45.898-21.902 3 8.402 3.602 30.3-.898 44.101-2.403 6.899.296 13.5 3.601 17.403 21.598 25.5 27.899 65.699 15.899 97.796-9.301 24-32.7 54.903-92.102 63.602l-23.098 3.602c14.16 21.367 15.653 23.93 18.602 27.296C296.5 384.5 301 390.5 301 407.301zm30-8.7v-61.5c0-17.1-3.602-28.5-8.402-36.902 45.601-12.296 78.004-39.3 92.402-78 15.3-40.796 8.402-89.398-17.102-123 4.504-20.097 4.504-52.199-6.296-67.199C386.8 95.602 380.199 92 371.8 92h-.301c-23.262 1.258-41.57 12.973-61.2 24.898-18-4.8-36.3-7.199-54.6-7.199-18.598 0-37.2 2.7-53.696 7.2C181.34 104.437 163.207 93.226 139.3 92c-7.5 0-14.102 3.602-18.903 10.2-10.796 15-10.796 47.1-6.296 67.198-25.504 33.602-32.403 82.5-17.102 123 14.398 38.7 46.8 65.704 92.402 78-3.722 6.512-6.668 14.915-7.828 26.286-9.21 3.175-17.199 4.21-24.629 2.027-7.836-2.316-13.941-7.547-19.246-16.469-11.914-20.015-32.207-36.355-55.312-34.23l2.636 29.883c10.7-.98 21.348 10.34 26.88 19.671 9.124 15.368 21.417 25.446 36.546 29.914 11.23 3.31 21.496 3.23 32.551.872V468.8C93.7 438.199 30 354.8 30 257 30 132.8 131.8 30 256 30s226 102.8 226 227c0 97.8-63.7 181.2-151 211.8zm0 0"/></symbol><symbol id="icon-instagram" viewBox="0 0 512 512"><path d="M75 512h362c41.355 0 75-33.645 75-75V75c0-41.355-33.645-75-75-75H75C33.645 0 0 33.645 0 75v362c0 41.355 33.645 75 75 75zM30 75c0-24.813 20.188-45 45-45h362c24.813 0 45 20.188 45 45v362c0 24.813-20.188 45-45 45H75c-24.813 0-45-20.188-45-45zm0 0"/><path d="M256 391c74.438 0 135-60.563 135-135s-60.563-135-135-135-135 60.563-135 135 60.563 135 135 135zm0-240c57.898 0 105 47.102 105 105s-47.102 105-105 105-105-47.102-105-105 47.102-105 105-105zm150 0c24.813 0 45-20.188 45-45s-20.188-45-45-45-45 20.188-45 45 20.188 45 45 45zm0-60c8.27 0 15 6.73 15 15s-6.73 15-15 15-15-6.73-15-15 6.73-15 15-15zm0 0"/></symbol><symbol id="icon-logo" viewBox="0 0 40.8 28.1"><path d="M.4 27.6h24m-12-20.3L.4 27.6m12-20.3l12 20.3m-8 0h24m-12-20.3l-12 20.3m12-20.3l12 20.3m-32-6.8h24M20.4.4l-12 20.3M20.4.4l12 20.3" stroke-width=".8" stroke-linecap="round" stroke-miterlimit="1"/></symbol><symbol id="icon-search" viewBox="0 0 17.5 17"><path class="st0" d="M17.5 16.3L11 10.1c.9-1.1 1.4-2.4 1.4-3.9C12.4 2.8 9.6 0 6.2 0 2.8 0 0 2.8 0 6.2s2.8 6.2 6.2 6.2c1.6 0 3-.6 4.1-1.6l6.5 6.2.7-.7zM6.2 11.4C3.3 11.4 1 9.1 1 6.2S3.3 1 6.2 1s5.2 2.3 5.2 5.2-2.3 5.2-5.2 5.2z"/></symbol><symbol id="icon-star" viewBox="0 0 512 512"><path d="M512 197.819l-185.933-12.228L256 9.571l-70.067 176.021L0 197.82l142.658 120.93-46.802 183.679L256 401.214l160.144 101.215-46.8-183.671L512 197.819zM256 365.724l-112.464 71.08 32.827-128.831-100.534-85.085 130.971-8.603L256 90.687l49.2 123.599 131.124 8.602-100.689 85.077 32.829 128.839L256 365.724z"/></symbol><symbol id="icon-telegram" viewBox="1 -35 512 511"><path d="M121.453 253.172l63.555 158.887 82.75-82.754 141.535 112.504L512 .5 0 205.98zm-39.933-47.64l244.046-97.946-194.074 117.363zm287.535-89.25l-161.98 148.187-19.485 73.426-36.035-90.086zm-149.852 219.23l9.817-36.996 15.144 12.035zm171.656 53.394L243.473 271.754 465.375 68.746zm0 0"/></symbol><symbol id="icon-tmdb" viewBox="0 0 273.4 35.5"><g data-name="Layer 2"><path d="M191.85 35.37h63.9a17.67 17.67 0 0017.67-17.67A17.67 17.67 0 00255.75 0h-63.9a17.67 17.67 0 00-17.67 17.7 17.67 17.67 0 0017.67 17.67zm-181.75.05h7.8V6.92H28V0H0v6.9h10.1zm28.1 0H46V8.25h.1l8.95 27.15h6L70.3 8.25h.1V35.4h7.8V0H66.45l-8.2 23.1h-.1L50 0H38.2zM89.14.12h11.7a33.56 33.56 0 018.08 1 18.52 18.52 0 016.67 3.08 15.09 15.09 0 014.53 5.52 18.5 18.5 0 011.67 8.25 16.91 16.91 0 01-1.62 7.58 16.3 16.3 0 01-4.38 5.5 19.24 19.24 0 01-6.35 3.37 24.53 24.53 0 01-7.55 1.15H89.14zm7.8 28.2h4a21.66 21.66 0 005-.55A10.58 10.58 0 00110 26a8.73 8.73 0 002.68-3.35 11.9 11.9 0 001-5.08 9.87 9.87 0 00-1-4.52 9.17 9.17 0 00-2.63-3.18A11.61 11.61 0 00106.22 8a17.06 17.06 0 00-4.68-.63h-4.6zM133.09.12h13.2a32.87 32.87 0 014.63.33 12.66 12.66 0 014.17 1.3 7.94 7.94 0 013 2.72 8.34 8.34 0 011.15 4.65 7.48 7.48 0 01-1.67 5 9.13 9.13 0 01-4.43 2.82V17a10.28 10.28 0 013.18 1 8.51 8.51 0 012.45 1.85 7.79 7.79 0 011.57 2.62 9.16 9.16 0 01.55 3.2 8.52 8.52 0 01-1.2 4.68 9.32 9.32 0 01-3.1 3 13.38 13.38 0 01-4.27 1.65 22.5 22.5 0 01-4.73.5h-14.5zm7.8 14.15h5.65a7.65 7.65 0 001.78-.2 4.78 4.78 0 001.57-.65 3.43 3.43 0 001.13-1.2 3.63 3.63 0 00.42-1.8A3.3 3.3 0 00151 8.6a3.42 3.42 0 00-1.23-1.13A6.07 6.07 0 00148 6.9a9.9 9.9 0 00-1.85-.18h-5.3zm0 14.65h7a8.27 8.27 0 001.83-.2 4.67 4.67 0 001.67-.7 3.93 3.93 0 001.23-1.3 3.8 3.8 0 00.47-1.95 3.16 3.16 0 00-.62-2 4 4 0 00-1.58-1.18 8.23 8.23 0 00-2-.55 15.12 15.12 0 00-2.05-.15h-5.9z" data-name="Layer 1"/></g></symbol></svg>